<svg width="200" height="125" viewBox="0 0 200 125" fill="none" xmlns="http://www.w3.org/2000/svg">
<path d="M58.6244 94.1811C55.5567 96.7886 52.1362 98.798 48.3629 100.209C44.5895 101.59 40.6628 102.28 36.5827 102.28C33.4537 102.28 30.4319 101.866 27.5176 101.037C24.6339 100.24 21.9343 99.1048 19.4188 97.6323C16.9032 96.1291 14.6024 94.3498 12.5164 92.2944C10.4303 90.2084 8.65101 87.9075 7.1785 85.392C5.70599 82.8458 4.55559 80.1155 3.7273 77.2012C2.92969 74.2868 2.53088 71.2651 2.53088 68.136C2.53088 65.0069 2.92969 62.0005 3.7273 59.1169C4.55559 56.2332 5.70599 53.5336 7.1785 51.018C8.65101 48.4718 10.4303 46.171 12.5164 44.1156C14.6024 42.0296 16.9032 40.2503 19.4188 38.7778C21.9343 37.3053 24.6339 36.1702 27.5176 35.3726C30.4319 34.5443 33.4537 34.1301 36.5827 34.1301C40.6628 34.1301 44.5895 34.8357 48.3629 36.2469C52.1362 37.6274 55.5567 39.6214 58.6244 42.229L51.722 53.733C49.728 51.7083 47.4272 50.1284 44.8196 48.9933C42.212 47.8276 39.4664 47.2447 36.5827 47.2447C33.6991 47.2447 30.9841 47.7969 28.4379 48.9013C25.9224 50.0057 23.7136 51.5089 21.8116 53.4109C19.9096 55.2822 18.4064 57.491 17.302 60.0372C16.1976 62.5527 15.6455 65.2523 15.6455 68.136C15.6455 71.0503 16.1976 73.7806 17.302 76.3268C18.4064 78.8731 19.9096 81.0972 21.8116 82.9992C23.7136 84.9012 25.9224 86.4044 28.4379 87.5087C30.9841 88.6131 33.6991 89.1653 36.5827 89.1653C38.2393 89.1653 39.8499 88.9659 41.4144 88.5671C42.979 88.1683 44.4668 87.6161 45.878 86.9105V68.136H58.6244V94.1811ZM133.446 68.136C133.446 71.2651 133.032 74.2868 132.204 77.2012C131.406 80.0848 130.271 82.7998 128.799 85.346C127.326 87.8615 125.547 90.1623 123.461 92.2484C121.375 94.3345 119.074 96.1291 116.559 97.6323C114.043 99.1048 111.328 100.24 108.414 101.037C105.499 101.866 102.478 102.28 99.3486 102.28C96.2195 102.28 93.1978 101.866 90.2835 101.037C87.3998 100.24 84.6848 99.1048 82.1386 97.6323C79.6231 96.1291 77.3223 94.3345 75.2362 92.2484C73.1502 90.1623 71.3555 87.8615 69.8523 85.346C68.3798 82.7998 67.2294 80.0848 66.4011 77.2012C65.6035 74.2868 65.2047 71.2651 65.2047 68.136C65.2047 65.0069 65.6035 61.9852 66.4011 59.0708C67.2294 56.1565 68.3798 53.4415 69.8523 50.926C71.3555 48.4105 73.1502 46.1097 75.2362 44.0236C77.3223 41.9375 79.6231 40.1582 82.1386 38.6857C84.6848 37.2132 87.3998 36.0782 90.2835 35.2805C93.1978 34.4523 96.2195 34.0381 99.3486 34.0381C102.478 34.0381 105.499 34.4523 108.414 35.2805C111.328 36.0782 114.043 37.2132 116.559 38.6857C119.074 40.1582 121.375 41.9375 123.461 44.0236C125.547 46.1097 127.326 48.4105 128.799 50.926C130.271 53.4415 131.406 56.1565 132.204 59.0708C133.032 61.9852 133.446 65.0069 133.446 68.136ZM120.332 68.136C120.332 65.2523 119.78 62.5374 118.675 59.9912C117.571 57.4143 116.068 55.1901 114.166 53.3188C112.294 51.4168 110.07 49.9136 107.493 48.8093C104.947 47.7049 102.232 47.1527 99.3486 47.1527C96.4343 47.1527 93.704 47.7049 91.1578 48.8093C88.6115 49.9136 86.3874 51.4168 84.4854 53.3188C82.5834 55.1901 81.0803 57.4143 79.9759 59.9912C78.8715 62.5374 78.3193 65.2523 78.3193 68.136C78.3193 71.0197 78.8715 73.7346 79.9759 76.2808C81.0803 78.7964 82.5834 81.0051 84.4854 82.9071C86.3874 84.8091 88.6115 86.3123 91.1578 87.4167C93.704 88.5211 96.4343 89.0733 99.3486 89.0733C102.232 89.0733 104.947 88.5211 107.493 87.4167C110.07 86.3123 112.294 84.8091 114.166 82.9071C116.068 81.0051 117.571 78.7964 118.675 76.2808C119.78 73.7346 120.332 71.0197 120.332 68.136ZM168.281 74.4862C168.281 78.1368 167.59 81.5727 166.21 84.7938C164.829 87.9842 162.943 90.7759 160.55 93.1687C158.188 95.5309 155.396 97.4022 152.175 98.7827C148.985 100.163 145.564 100.853 141.913 100.853C139.705 100.853 137.496 100.577 135.287 100.025V85.8522C136.269 86.435 137.327 86.8799 138.462 87.1866C139.597 87.4934 140.748 87.6468 141.913 87.6468C143.723 87.6468 145.426 87.3093 147.021 86.6344C148.647 85.9289 150.058 84.9779 151.255 83.7814C152.451 82.585 153.387 81.1892 154.062 79.594C154.767 77.9988 155.12 76.2962 155.12 74.4862V34.8664H168.281V74.4862ZM192.991 100.853H179.785V34.8664H192.991V100.853Z" fill="#A5A837"/>
<path d="M179.212 20.0116C177.225 11.5208 186.394 0.769246 190.717 1.4579C195.041 2.14655 197.862 15.2493 194.654 22.4711C191.445 29.6928 181.662 30.4777 179.212 20.0116Z" fill="#D41B5E" stroke="#D51B5E" stroke-width="0.65445"/>
</svg>
